<mxfile host="app.diagrams.net" agent="Mozilla/5.0 (Windows NT 10.0; Win64; x64) AppleWebKit/537.36 (KHTML, like Gecko) Chrome/136.0.0.0 Safari/537.36" version="26.2.14">
  <diagram name="第 1 页" id="99t5WYaWfz4FmsrJwGan">
    <mxGraphModel dx="786" dy="459" grid="1" gridSize="10" guides="1" tooltips="1" connect="1" arrows="1" fold="1" page="1" pageScale="1" pageWidth="827" pageHeight="1169" math="0" shadow="0">
      <root>
        <mxCell id="0" />
        <mxCell id="1" parent="0" />
        <mxCell id="gLneZUYs91FEv9-t8ZvZ-1" value="j" style="swimlane;childLayout=stackLayout;resizeParent=1;resizeParentMax=0;startSize=20;horizontal=0;horizontalStack=1;" vertex="1" parent="1">
          <mxGeometry x="260" y="50" width="745" height="600" as="geometry" />
        </mxCell>
        <mxCell id="gLneZUYs91FEv9-t8ZvZ-6" value="对账任务proc" style="swimlane;startSize=20;fillColor=#66B2FF;" vertex="1" parent="gLneZUYs91FEv9-t8ZvZ-1">
          <mxGeometry x="20" width="140" height="600" as="geometry" />
        </mxCell>
        <mxCell id="gLneZUYs91FEv9-t8ZvZ-8" value="账单文件下载" style="verticalLabelPosition=bottom;verticalAlign=top;html=1;shape=mxgraph.basic.patternFillRect;fillStyle=diag;step=5;fillStrokeWidth=0.2;fillStrokeColor=#dddddd;" vertex="1" parent="gLneZUYs91FEv9-t8ZvZ-6">
          <mxGeometry x="35" y="70" width="70" height="30" as="geometry" />
        </mxCell>
        <mxCell id="gLneZUYs91FEv9-t8ZvZ-3" value="inter-r" style="swimlane;startSize=20;fillColor=#66B2FF;" vertex="1" parent="gLneZUYs91FEv9-t8ZvZ-1">
          <mxGeometry x="160" width="125" height="600" as="geometry" />
        </mxCell>
        <mxCell id="gLneZUYs91FEv9-t8ZvZ-11" value="BANK_ROUTE_HTTP&lt;div&gt;BankRouteHttpService#doPost()&lt;/div&gt;" style="verticalLabelPosition=bottom;verticalAlign=top;html=1;shape=mxgraph.basic.patternFillRect;fillStyle=diag;step=5;fillStrokeWidth=0.2;fillStrokeColor=#dddddd;fillColor=#FFFFFF;" vertex="1" parent="gLneZUYs91FEv9-t8ZvZ-3">
          <mxGeometry x="40" y="70" width="70" height="30" as="geometry" />
        </mxCell>
        <mxCell id="gLneZUYs91FEv9-t8ZvZ-4" value="agent-r" style="swimlane;startSize=20;fillColor=#66B2FF;" vertex="1" parent="gLneZUYs91FEv9-t8ZvZ-1">
          <mxGeometry x="285" width="135" height="600" as="geometry" />
        </mxCell>
        <mxCell id="gLneZUYs91FEv9-t8ZvZ-13" value="AGENT_HTTP_CLIENT&lt;div&gt;&lt;br&gt;&lt;div&gt;Agent4BankHttpService#doPost()&lt;/div&gt;&lt;div&gt;&lt;br&gt;&lt;/div&gt;&lt;/div&gt;" style="verticalLabelPosition=bottom;verticalAlign=top;html=1;shape=mxgraph.basic.patternFillRect;fillStyle=diag;step=5;fillStrokeWidth=0.2;fillStrokeColor=#dddddd;" vertex="1" parent="gLneZUYs91FEv9-t8ZvZ-4">
          <mxGeometry x="45" y="70" width="70" height="30" as="geometry" />
        </mxCell>
        <mxCell id="gLneZUYs91FEv9-t8ZvZ-25" value="" style="edgeStyle=orthogonalEdgeStyle;rounded=0;orthogonalLoop=1;jettySize=auto;html=1;fillColor=#66B2FF;" edge="1" parent="gLneZUYs91FEv9-t8ZvZ-4" source="gLneZUYs91FEv9-t8ZvZ-22" target="gLneZUYs91FEv9-t8ZvZ-24">
          <mxGeometry relative="1" as="geometry" />
        </mxCell>
        <mxCell id="gLneZUYs91FEv9-t8ZvZ-22" value="解析报文获取下载URL" style="verticalLabelPosition=bottom;verticalAlign=top;html=1;shape=mxgraph.basic.patternFillRect;fillStyle=diag;step=5;fillStrokeWidth=0.2;fillStrokeColor=#dddddd;" vertex="1" parent="gLneZUYs91FEv9-t8ZvZ-4">
          <mxGeometry x="32.5" y="180" width="70" height="30" as="geometry" />
        </mxCell>
        <mxCell id="gLneZUYs91FEv9-t8ZvZ-40" value="" style="edgeStyle=orthogonalEdgeStyle;rounded=0;orthogonalLoop=1;jettySize=auto;html=1;fillColor=#66B2FF;" edge="1" parent="gLneZUYs91FEv9-t8ZvZ-4" source="gLneZUYs91FEv9-t8ZvZ-24" target="gLneZUYs91FEv9-t8ZvZ-39">
          <mxGeometry relative="1" as="geometry" />
        </mxCell>
        <mxCell id="gLneZUYs91FEv9-t8ZvZ-24" value="调用账单服务器" style="verticalLabelPosition=bottom;verticalAlign=top;html=1;shape=mxgraph.basic.patternFillRect;fillStyle=diag;step=5;fillStrokeWidth=0.2;fillStrokeColor=#dddddd;fillColor=#FF3333;" vertex="1" parent="gLneZUYs91FEv9-t8ZvZ-4">
          <mxGeometry x="32.5" y="290" width="70" height="30" as="geometry" />
        </mxCell>
        <mxCell id="gLneZUYs91FEv9-t8ZvZ-39" value="上传文件服务器" style="verticalLabelPosition=bottom;verticalAlign=top;html=1;shape=mxgraph.basic.patternFillRect;fillStyle=diag;step=5;fillStrokeWidth=0.2;fillStrokeColor=#dddddd;" vertex="1" parent="gLneZUYs91FEv9-t8ZvZ-4">
          <mxGeometry x="32.5" y="400" width="70" height="30" as="geometry" />
        </mxCell>
        <mxCell id="gLneZUYs91FEv9-t8ZvZ-10" value="" style="edgeStyle=orthogonalEdgeStyle;rounded=0;orthogonalLoop=1;jettySize=auto;html=1;" edge="1" parent="gLneZUYs91FEv9-t8ZvZ-1" source="gLneZUYs91FEv9-t8ZvZ-8">
          <mxGeometry relative="1" as="geometry">
            <mxPoint x="185" y="85" as="targetPoint" />
          </mxGeometry>
        </mxCell>
        <mxCell id="gLneZUYs91FEv9-t8ZvZ-14" value="" style="edgeStyle=orthogonalEdgeStyle;rounded=0;orthogonalLoop=1;jettySize=auto;html=1;fillColor=#66B2FF;" edge="1" parent="gLneZUYs91FEv9-t8ZvZ-1" source="gLneZUYs91FEv9-t8ZvZ-11" target="gLneZUYs91FEv9-t8ZvZ-13">
          <mxGeometry relative="1" as="geometry" />
        </mxCell>
        <mxCell id="gLneZUYs91FEv9-t8ZvZ-16" value="" style="edgeStyle=orthogonalEdgeStyle;rounded=0;orthogonalLoop=1;jettySize=auto;html=1;" edge="1" parent="gLneZUYs91FEv9-t8ZvZ-1" source="gLneZUYs91FEv9-t8ZvZ-13" target="gLneZUYs91FEv9-t8ZvZ-15">
          <mxGeometry relative="1" as="geometry" />
        </mxCell>
        <mxCell id="gLneZUYs91FEv9-t8ZvZ-5" value="NG代理" style="swimlane;startSize=20;fillColor=#CCCCCC;" vertex="1" parent="gLneZUYs91FEv9-t8ZvZ-1">
          <mxGeometry x="420" width="190" height="600" as="geometry" />
        </mxCell>
        <mxCell id="gLneZUYs91FEv9-t8ZvZ-15" value="NG代理&lt;div&gt;alipay&lt;/div&gt;" style="verticalLabelPosition=bottom;verticalAlign=top;html=1;shape=mxgraph.basic.patternFillRect;fillStyle=diag;step=5;fillStrokeWidth=0.2;fillStrokeColor=#dddddd;" vertex="1" parent="gLneZUYs91FEv9-t8ZvZ-5">
          <mxGeometry x="50" y="70" width="70" height="30" as="geometry" />
        </mxCell>
        <mxCell id="gLneZUYs91FEv9-t8ZvZ-17" value="" style="verticalLabelPosition=bottom;verticalAlign=top;html=1;shape=mxgraph.basic.patternFillRect;fillStyle=diag;step=5;fillStrokeWidth=0.2;fillStrokeColor=#dddddd;" vertex="1" parent="gLneZUYs91FEv9-t8ZvZ-5">
          <mxGeometry x="50" y="180" width="70" height="30" as="geometry" />
        </mxCell>
        <mxCell id="gLneZUYs91FEv9-t8ZvZ-36" value="&lt;div&gt;NG代理&lt;/div&gt;alipaybill" style="verticalLabelPosition=bottom;verticalAlign=top;html=1;shape=mxgraph.basic.patternFillRect;fillStyle=diag;step=5;fillStrokeWidth=0.2;fillStrokeColor=#dddddd;fillColor=#FF3333;" vertex="1" parent="gLneZUYs91FEv9-t8ZvZ-5">
          <mxGeometry x="47.5" y="290" width="70" height="30" as="geometry" />
        </mxCell>
        <mxCell id="gLneZUYs91FEv9-t8ZvZ-23" value="" style="edgeStyle=orthogonalEdgeStyle;rounded=0;orthogonalLoop=1;jettySize=auto;html=1;" edge="1" parent="gLneZUYs91FEv9-t8ZvZ-1" source="gLneZUYs91FEv9-t8ZvZ-17" target="gLneZUYs91FEv9-t8ZvZ-22">
          <mxGeometry relative="1" as="geometry" />
        </mxCell>
        <mxCell id="gLneZUYs91FEv9-t8ZvZ-26" value="金融机构" style="swimlane;startSize=20;fillColor=#66FF66;" vertex="1" parent="gLneZUYs91FEv9-t8ZvZ-1">
          <mxGeometry x="610" width="135" height="600" as="geometry" />
        </mxCell>
        <mxCell id="gLneZUYs91FEv9-t8ZvZ-27" value="金融机构地址&lt;br&gt;&lt;div&gt;&lt;div&gt;&lt;br&gt;&lt;/div&gt;&lt;/div&gt;" style="verticalLabelPosition=bottom;verticalAlign=top;html=1;shape=mxgraph.basic.patternFillRect;fillStyle=diag;step=5;fillStrokeWidth=0.2;fillStrokeColor=#dddddd;" vertex="1" parent="gLneZUYs91FEv9-t8ZvZ-26">
          <mxGeometry x="45" y="70" width="70" height="30" as="geometry" />
        </mxCell>
        <mxCell id="gLneZUYs91FEv9-t8ZvZ-29" value="返回账单文件下载URL" style="verticalLabelPosition=bottom;verticalAlign=top;html=1;shape=mxgraph.basic.patternFillRect;fillStyle=diag;step=5;fillStrokeWidth=0.2;fillStrokeColor=#dddddd;" vertex="1" parent="gLneZUYs91FEv9-t8ZvZ-26">
          <mxGeometry x="45" y="180" width="70" height="30" as="geometry" />
        </mxCell>
        <mxCell id="gLneZUYs91FEv9-t8ZvZ-30" value="账单下载服务器" style="verticalLabelPosition=bottom;verticalAlign=top;html=1;shape=mxgraph.basic.patternFillRect;fillStyle=diag;step=5;fillStrokeWidth=0.2;fillStrokeColor=#dddddd;fillColor=#FF3333;" vertex="1" parent="gLneZUYs91FEv9-t8ZvZ-26">
          <mxGeometry x="45" y="290" width="70" height="30" as="geometry" />
        </mxCell>
        <mxCell id="gLneZUYs91FEv9-t8ZvZ-34" style="edgeStyle=orthogonalEdgeStyle;rounded=0;orthogonalLoop=1;jettySize=auto;html=1;entryX=0.5;entryY=0;entryDx=0;entryDy=0;entryPerimeter=0;" edge="1" parent="gLneZUYs91FEv9-t8ZvZ-26" source="gLneZUYs91FEv9-t8ZvZ-27" target="gLneZUYs91FEv9-t8ZvZ-29">
          <mxGeometry relative="1" as="geometry" />
        </mxCell>
        <mxCell id="gLneZUYs91FEv9-t8ZvZ-32" style="edgeStyle=orthogonalEdgeStyle;rounded=0;orthogonalLoop=1;jettySize=auto;html=1;entryX=0;entryY=0.5;entryDx=0;entryDy=0;entryPerimeter=0;" edge="1" parent="gLneZUYs91FEv9-t8ZvZ-1" source="gLneZUYs91FEv9-t8ZvZ-15" target="gLneZUYs91FEv9-t8ZvZ-27">
          <mxGeometry relative="1" as="geometry" />
        </mxCell>
        <mxCell id="gLneZUYs91FEv9-t8ZvZ-33" style="edgeStyle=orthogonalEdgeStyle;rounded=0;orthogonalLoop=1;jettySize=auto;html=1;entryX=0;entryY=0.5;entryDx=0;entryDy=0;entryPerimeter=0;" edge="1" parent="gLneZUYs91FEv9-t8ZvZ-1" source="gLneZUYs91FEv9-t8ZvZ-17" target="gLneZUYs91FEv9-t8ZvZ-29">
          <mxGeometry relative="1" as="geometry" />
        </mxCell>
        <mxCell id="gLneZUYs91FEv9-t8ZvZ-37" value="" style="edgeStyle=orthogonalEdgeStyle;rounded=0;orthogonalLoop=1;jettySize=auto;html=1;fillColor=#d80073;strokeColor=#A50040;" edge="1" parent="gLneZUYs91FEv9-t8ZvZ-1" source="gLneZUYs91FEv9-t8ZvZ-24" target="gLneZUYs91FEv9-t8ZvZ-36">
          <mxGeometry relative="1" as="geometry">
            <Array as="points">
              <mxPoint x="430" y="305" />
              <mxPoint x="430" y="305" />
            </Array>
          </mxGeometry>
        </mxCell>
        <mxCell id="gLneZUYs91FEv9-t8ZvZ-38" style="edgeStyle=orthogonalEdgeStyle;rounded=0;orthogonalLoop=1;jettySize=auto;html=1;entryX=0;entryY=0.5;entryDx=0;entryDy=0;entryPerimeter=0;fillColor=#d80073;strokeColor=#A50040;" edge="1" parent="gLneZUYs91FEv9-t8ZvZ-1" source="gLneZUYs91FEv9-t8ZvZ-36" target="gLneZUYs91FEv9-t8ZvZ-30">
          <mxGeometry relative="1" as="geometry" />
        </mxCell>
      </root>
    </mxGraphModel>
  </diagram>
</mxfile>
